# xmcd
#
# Track frame offsets:
#	150
#	4406
#	10314
#	28805
#	49779
#	73903
#	99491
#	132868
#	151101
#	180403
#	203422
#	225814
#	234474
#
# Disc length: 3227 seconds
#
# Revision: 11
# Processed by: cddbd v1.5.2PL0 Copyright (c) Steve Scherf et al.
# Submitted via: Jack! The Knife 20 Magnifico
#
DISCID=980c990d
DTITLE=Dio - Magica
DYEAR=2000
DGENRE=Metal
TTITLE0=Discovery
TTITLE1=Magica Theme
TTITLE2=Lord Of The Last Day
TTITLE3=Fever Dreams
TTITLE4=Turn To Stone
TTITLE5=Feed My Head
TTITLE6=Eriel
TTITLE7=Challis
TTITLE8=As Long As It's Not About Love
TTITLE9=Losing My Insanity
TTITLE10=Otherworld
TTITLE11=Magica (Reprise)
TTITLE12=Lord Of The Last Day (Reprise)
EXTD=Ronnie James Dio
EXTT0=Dio, Goldy
EXTT1=Dio, Goldy
EXTT2=Dio, Goldy
EXTT3=Dio, Goldy
EXTT4=Dio, Goldy
EXTT5=Dio, Goldy
EXTT6=Dio, Goldy
EXTT7=Dio, Goldy
EXTT8=Dio, Goldy
EXTT9=Dio, Goldy
EXTT10=Dio, Goldy
EXTT11=Dio, Goldy
EXTT12=Dio, Goldy
PLAYORDER=
